<?xml version="1.0" encoding="UTF-8"?><svg xmlns="http://www.w3.org/2000/svg" width="640.52734375" height="127.0" viewBox="121.0 189.0 640.52734375 127.0" preserveAspectRatio="none"><g><defs><path id="s-Path_52-d1224" d="M121.0 189.0 L761.52734375 189.0 L761.52734375 316.0 L121.0 316.0 Z "></path><filter filterUnits="userSpaceOnUse" x="120.0" y="188.0" width="642.52734375" height="129.0" color-interpolation-filters="sRGB" id="s-Path_52-d1224_effects"><feOffset dx="-0.0" dy="-0.0" input="SourceAlpha"></feOffset><feGaussianBlur result="DROP_SHADOW_0_blur" stdDeviation="1"></feGaussianBlur><feFlood flood-color="#FFFFFF" flood-opacity="1.0"></feFlood><feComposite operator="in" in2="DROP_SHADOW_0_blur"></feComposite><feComposite in="SourceGraphic" result="DROP_SHADOW_0"></feComposite></filter></defs><g style="mix-blend-mode:normal" filter="url(#s-Path_52-d1224_effects)"><use xmlns:xlink="http://www.w3.org/1999/xlink" xlink:href="#s-Path_52-d1224" fill="#FFFFFF" fill-opacity="0.0"></use></g></g><g><defs><path id="s-Path_53-d1224" d="M126.6640625 212.876953125 L126.6640625 270.15234375 C126.6640625 273.4401041666667 127.25 276.2151692708333 128.421875 278.4775390625 C129.59375 280.7399088541667 131.07486979166666 282.5791015625 132.865234375 283.9951171875 C134.65559895833334 285.4111328125 136.58430989583334 286.4283854166667 138.6513671875 287.046875 C140.71842447916666 287.6653645833333 142.66341145833334 287.974609375 144.486328125 287.974609375 L150.150390625 287.974609375 L150.150390625 275.279296875 L144.486328125 275.279296875 C143.021484375 275.279296875 141.80078125 274.8154296875 140.82421875 273.8876953125 C139.84765625 272.9599609375 139.359375 271.71484375 139.359375 270.15234375 L139.359375 212.876953125 Z "></path></defs><g style="mix-blend-mode:normal"><use xmlns:xlink="http://www.w3.org/1999/xlink" xlink:href="#s-Path_53-d1224" fill="#6B5B95" fill-opacity="1.0"></use></g></g><g><defs><path id="s-Path_54-d1224" d="M158.01171875 235.19140625 L158.01171875 270.15234375 C158.01171875 273.4401041666667 158.59765625 276.2151692708333 159.76953125 278.4775390625 C160.94140625 280.7399088541667 162.42252604166666 282.5791015625 164.212890625 283.9951171875 C166.00325520833334 285.4111328125 167.93196614583334 286.4283854166667 169.9990234375 287.046875 C172.06608072916666 287.6653645833333 174.01106770833334 287.974609375 175.833984375 287.974609375 L198.734375 287.974609375 L198.734375 275.279296875 L175.931640625 275.279296875 C174.20638020833334 275.279296875 172.904296875 274.83984375 172.025390625 273.9609375 C171.146484375 273.08203125 170.70703125 271.8125 170.70703125 270.15234375 L170.70703125 235.19140625 Z M203.8125 235.19140625 L203.8125 293.052734375 C203.8125 294.712890625 203.38932291666666 295.982421875 202.54296875 296.861328125 C201.69661458333334 297.740234375 200.42708333333334 298.1796875 198.734375 298.1796875 L175.833984375 298.1796875 L175.833984375 310.875 L198.734375 310.875 C199.93880208333334 310.875 201.20833333333334 310.7366536458333 202.54296875 310.4599609375 C203.87760416666666 310.1832682291667 205.2041015625 309.751953125 206.5224609375 309.166015625 C207.8408203125 308.580078125 209.10221354166666 307.8232421875 210.306640625 306.8955078125 C211.51106770833334 305.9677734375 212.56901041666666 304.8447265625 213.48046875 303.5263671875 C214.39192708333334 302.2080078125 215.12434895833334 300.6780598958333 215.677734375 298.9365234375 C216.23111979166666 297.1949869791667 216.5078125 295.2337239583333 216.5078125 293.052734375 L216.5078125 235.19140625 Z "></path></defs><g style="mix-blend-mode:normal"><use xmlns:xlink="http://www.w3.org/1999/xlink" xlink:href="#s-Path_54-d1224" fill="#6B5B95" fill-opacity="1.0"></use></g></g><g><defs><path id="s-Path_55-d1224" d="M242.142578125 235.19140625 C240.580078125 235.19140625 238.90364583333334 235.4599609375 237.11328125 235.9970703125 C235.32291666666666 236.5341796875 233.66276041666666 237.40494791666666 232.1328125 238.609375 C230.60286458333334 239.81380208333334 229.33333333333334 241.38444010416666 228.32421875 243.3212890625 C227.31510416666666 245.25813802083334 226.810546875 247.642578125 226.810546875 250.474609375 C226.810546875 251.939453125 227.0791015625 253.51822916666666 227.6162109375 255.2109375 C228.1533203125 256.9036458333333 229.0322265625 258.482421875 230.2529296875 259.947265625 C231.4736328125 261.412109375 233.060546875 262.6328125 235.013671875 263.609375 C236.966796875 264.5859375 239.34309895833334 265.07421875 242.142578125 265.07421875 L261.8203125 265.07421875 C265.0755208333333 265.07421875 266.7845052083333 266.7669270833333 266.947265625 270.15234375 C266.947265625 271.8125 266.5078125 273.08203125 265.62890625 273.9609375 C264.75 274.83984375 263.4479166666667 275.279296875 261.72265625 275.279296875 L227.4453125 275.279296875 L227.4453125 287.974609375 L261.8203125 287.974609375 C263.0247395833333 287.974609375 264.3024088541667 287.8362630208333 265.6533203125 287.5595703125 C267.0042317708333 287.2828776041667 268.3388671875 286.8515625 269.6572265625 286.265625 C270.9755859375 285.6796875 272.2369791666667 284.9228515625 273.44140625 283.9951171875 C274.6458333333333 283.0673828125 275.7037760416667 281.9443359375 276.615234375 280.6259765625 C277.5266927083333 279.3076171875 278.2591145833333 277.7776692708333 278.8125 276.0361328125 C279.3658854166667 274.2945963541667 279.642578125 272.3333333333333 279.642578125 270.15234375 C279.642578125 268.3619791666667 279.3251953125 266.4251302083333 278.6904296875 264.341796875 C278.0556640625 262.2584635416667 277.0384114583333 260.3297526041667 275.638671875 258.5556640625 C274.2389322916667 256.7815755208333 272.3997395833333 255.30859375 270.12109375 254.13671875 C267.8424479166667 252.96484375 265.0755208333333 252.37890625 261.8203125 252.37890625 L242.142578125 252.37890625 C241.849609375 252.37890625 241.54850260416666 252.37076822916666 241.2392578125 252.3544921875 C240.93001302083334 252.33821614583334 240.6533203125 252.26497395833334 240.4091796875 252.134765625 C240.1650390625 252.00455729166666 239.96158854166666 251.79296875 239.798828125 251.5 C239.63606770833334 251.20703125 239.53841145833334 250.80013020833334 239.505859375 250.279296875 C239.505859375 250.01888020833334 239.52213541666666 249.75032552083334 239.5546875 249.4736328125 C239.58723958333334 249.19694010416666 239.69303385416666 248.9365234375 239.8720703125 248.6923828125 C240.05110677083334 248.4482421875 240.32779947916666 248.2529296875 240.7021484375 248.1064453125 C241.07649739583334 247.9599609375 241.58919270833334 247.88671875 242.240234375 247.88671875 L273.34375 247.88671875 L273.34375 235.19140625 Z "></path></defs><g style="mix-blend-mode:normal"><use xmlns:xlink="http://www.w3.org/1999/xlink" xlink:href="#s-Path_55-d1224" fill="#6B5B95" fill-opacity="1.0"></use></g></g><g><defs><path id="s-Path_56-d1224" d="M297.66015625 235.19140625 L297.66015625 247.251953125 L325.541015625 247.251953125 C327.103515625 247.251953125 328.3974609375 247.740234375 329.4228515625 248.716796875 C330.4482421875 249.693359375 330.9609375 251.01171875 330.9609375 252.671875 L330.9609375 270.396484375 C330.9609375 271.958984375 330.4889322916667 273.2610677083333 329.544921875 274.302734375 C328.6009114583333 275.3444010416667 327.2662760416667 275.865234375 325.541015625 275.865234375 L302.73828125 275.865234375 C301.2408854166667 275.865234375 299.9469401041667 275.4013671875 298.8564453125 274.4736328125 C297.7659505208333 273.5458984375 297.220703125 272.251953125 297.220703125 270.591796875 C297.220703125 269.029296875 297.6927083333333 267.7190755208333 298.63671875 266.6611328125 C299.5807291666667 265.6031901041667 300.9153645833333 265.07421875 302.640625 265.07421875 L325.541015625 265.07421875 L325.541015625 252.96484375 L302.640625 252.96484375 C299.4505208333333 252.96484375 296.7405598958333 253.55078125 294.5107421875 254.72265625 C292.2809244791667 255.89453125 290.4742838541667 257.3512369791667 289.0908203125 259.0927734375 C287.7073567708333 260.8343098958333 286.7063802083333 262.73046875 286.087890625 264.78125 C285.4694010416667 266.83203125 285.16015625 268.736328125 285.16015625 270.494140625 C285.16015625 273.6842447916667 285.74609375 276.3942057291667 286.91796875 278.6240234375 C288.08984375 280.8538411458333 289.5465494791667 282.6604817708333 291.2880859375 284.0439453125 C293.0296223958333 285.4274088541667 294.9176432291667 286.4283854166667 296.9521484375 287.046875 C298.9866536458333 287.6653645833333 300.8828125 287.974609375 302.640625 287.974609375 L325.541015625 287.974609375 C328.7311197916667 287.974609375 331.4410807291667 287.388671875 333.6708984375 286.216796875 C335.9007161458333 285.044921875 337.7073567708333 283.5882161458333 339.0908203125 281.8466796875 C340.4742838541667 280.1051432291667 341.4752604166667 278.2171223958333 342.09375 276.1826171875 C342.7122395833333 274.1481119791667 343.021484375 272.251953125 343.021484375 270.494140625 L343.021484375 252.671875 C343.021484375 249.48177083333334 342.435546875 246.77180989583334 341.263671875 244.5419921875 C340.091796875 242.31217447916666 338.6350911458333 240.50553385416666 336.8935546875 239.1220703125 C335.1520182291667 237.73860677083334 333.2639973958333 236.73763020833334 331.2294921875 236.119140625 C329.1949869791667 235.50065104166666 327.298828125 235.19140625 325.541015625 235.19140625 Z "></path></defs><g style="mix-blend-mode:normal"><use xmlns:xlink="http://www.w3.org/1999/xlink" xlink:href="#s-Path_56-d1224" fill="#6B5B95" fill-opacity="1.0"></use></g></g><g><defs><path id="s-Path_57-d1224" d="M403.080078125 235.19140625 C400.8990885416667 235.19140625 398.9459635416667 235.46809895833334 397.220703125 236.021484375 C395.4954427083333 236.57486979166666 393.9736328125 237.30729166666666 392.6552734375 238.21875 C391.3369140625 239.13020833333334 390.2138671875 240.18815104166666 389.2861328125 241.392578125 C388.3583984375 242.59700520833334 387.6015625 243.8583984375 387.015625 245.1767578125 C386.4296875 246.4951171875 385.9983723958333 247.82161458333334 385.7216796875 249.15625 C385.4449869791667 250.49088541666666 385.306640625 251.76041666666666 385.306640625 252.96484375 L385.306640625 270.15234375 C385.306640625 273.4401041666667 385.9007161458333 276.2151692708333 387.0888671875 278.4775390625 C388.2770182291667 280.7399088541667 389.7581380208333 282.5791015625 391.5322265625 283.9951171875 C393.3063151041667 285.4111328125 395.2350260416667 286.4283854166667 397.318359375 287.046875 C399.4016927083333 287.6653645833333 401.322265625 287.974609375 403.080078125 287.974609375 L437.50390625 287.974609375 L437.50390625 275.279296875 L403.177734375 275.279296875 C401.4850260416667 275.279296875 400.19921875 274.83984375 399.3203125 273.9609375 C398.44140625 273.08203125 398.001953125 271.8125 398.001953125 270.15234375 L398.001953125 253.0625 C398.001953125 251.3046875 398.4332682291667 250.00260416666666 399.2958984375 249.15625 C400.1585286458333 248.30989583333334 401.419921875 247.88671875 403.080078125 247.88671875 L437.50390625 247.88671875 L437.50390625 235.19140625 Z "></path></defs><g style="mix-blend-mode:normal"><use xmlns:xlink="http://www.w3.org/1999/xlink" xlink:href="#s-Path_57-d1224" fill="#6B5B95" fill-opacity="1.0"></use></g></g><g><defs><path id="s-Path_58-d1224" d="M487.6015625 247.88671875 C489.26171875 247.88671875 490.53125 248.30989583333334 491.41015625 249.15625 C492.2890625 250.00260416666666 492.728515625 251.3046875 492.728515625 253.0625 L492.728515625 270.15234375 C492.728515625 271.8125 492.3053385416667 273.08203125 491.458984375 273.9609375 C490.6126302083333 274.83984375 489.3268229166667 275.279296875 487.6015625 275.279296875 L464.798828125 275.279296875 C463.1061197916667 275.279296875 461.8203125 274.83984375 460.94140625 273.9609375 C460.0625 273.08203125 459.623046875 271.8125 459.623046875 270.15234375 L459.623046875 252.96484375 C459.623046875 251.3046875 460.0625 250.04329427083334 460.94140625 249.1806640625 C461.8203125 248.31803385416666 463.1061197916667 247.88671875 464.798828125 247.88671875 Z M464.701171875 235.19140625 C462.943359375 235.19140625 461.0227864583333 235.50065104166666 458.939453125 236.119140625 C456.8561197916667 236.73763020833334 454.9274088541667 237.7548828125 453.1533203125 239.1708984375 C451.3792317708333 240.5869140625 449.8981119791667 242.42610677083334 448.7099609375 244.6884765625 C447.5218098958333 246.95084635416666 446.927734375 249.70963541666666 446.927734375 252.96484375 L446.927734375 270.15234375 C446.927734375 273.4401041666667 447.5218098958333 276.2151692708333 448.7099609375 278.4775390625 C449.8981119791667 280.7399088541667 451.3792317708333 282.5791015625 453.1533203125 283.9951171875 C454.9274088541667 285.4111328125 456.8561197916667 286.4283854166667 458.939453125 287.046875 C461.0227864583333 287.6653645833333 462.943359375 287.974609375 464.701171875 287.974609375 L487.6015625 287.974609375 C488.8059895833333 287.974609375 490.0836588541667 287.8362630208333 491.4345703125 287.5595703125 C492.7854817708333 287.2828776041667 494.1201171875 286.8515625 495.4384765625 286.265625 C496.7568359375 285.6796875 498.0182291666667 284.9228515625 499.22265625 283.9951171875 C500.4270833333333 283.0673828125 501.4850260416667 281.9443359375 502.396484375 280.6259765625 C503.3079427083333 279.3076171875 504.0403645833333 277.7776692708333 504.59375 276.0361328125 C505.1471354166667 274.2945963541667 505.423828125 272.3333333333333 505.423828125 270.15234375 L505.423828125 252.96484375 C505.423828125 251.17447916666666 505.1064453125 249.23763020833334 504.4716796875 247.154296875 C503.8369140625 245.07096354166666 502.8196614583333 243.14225260416666 501.419921875 241.3681640625 C500.0201822916667 239.59407552083334 498.1809895833333 238.12109375 495.90234375 236.94921875 C493.6236979166667 235.77734375 490.8567708333333 235.19140625 487.6015625 235.19140625 Z "></path></defs><g style="mix-blend-mode:normal"><use xmlns:xlink="http://www.w3.org/1999/xlink" xlink:href="#s-Path_58-d1224" fill="#6B5B95" fill-opacity="1.0"></use></g></g><g><defs><path id="s-Path_59-d1224" d="M522.611328125 235.19140625 C521.732421875 235.19140625 520.90234375 235.35416666666666 520.12109375 235.6796875 C519.33984375 236.00520833333334 518.65625 236.45279947916666 518.0703125 237.0224609375 C517.484375 237.59212239583334 517.0286458333334 238.25944010416666 516.703125 239.0244140625 C516.3776041666666 239.78938802083334 516.21484375 240.611328125 516.21484375 241.490234375 L516.21484375 287.974609375 L528.91015625 287.974609375 L528.91015625 247.88671875 L551.126953125 247.88671875 C552.6569010416666 247.88671875 554.0810546875 248.13899739583334 555.3994140625 248.6435546875 C556.7177734375 249.14811197916666 557.865234375 249.87239583333334 558.841796875 250.81640625 C559.818359375 251.76041666666666 560.5914713541666 252.8916015625 561.1611328125 254.2099609375 C561.7307942708334 255.5283203125 562.015625 257.017578125 562.015625 258.677734375 L562.015625 287.974609375 L574.7109375 287.974609375 L574.7109375 258.677734375 C574.7109375 255.81315104166666 574.3528645833334 253.24153645833334 573.63671875 250.962890625 C572.9205729166666 248.68424479166666 571.9521484375 246.67415364583334 570.7314453125 244.9326171875 C569.5107421875 243.19108072916666 568.1110026041666 241.7099609375 566.5322265625 240.4892578125 C564.9534505208334 239.2685546875 563.2932942708334 238.25944010416666 561.5517578125 237.4619140625 C559.8102213541666 236.66438802083334 558.0524088541666 236.08658854166666 556.2783203125 235.728515625 C554.5042317708334 235.37044270833334 552.8196614583334 235.19140625 551.224609375 235.19140625 Z "></path></defs><g style="mix-blend-mode:normal"><use xmlns:xlink="http://www.w3.org/1999/xlink" xlink:href="#s-Path_59-d1224" fill="#6B5B95" fill-opacity="1.0"></use></g></g><g><defs><path id="s-Path_60-d1224" d="M599.369140625 235.19140625 C597.806640625 235.19140625 596.1302083333334 235.4599609375 594.33984375 235.9970703125 C592.5494791666666 236.5341796875 590.8893229166666 237.40494791666666 589.359375 238.609375 C587.8294270833334 239.81380208333334 586.5598958333334 241.38444010416666 585.55078125 243.3212890625 C584.5416666666666 245.25813802083334 584.037109375 247.642578125 584.037109375 250.474609375 C584.037109375 251.939453125 584.3056640625 253.51822916666666 584.8427734375 255.2109375 C585.3798828125 256.9036458333333 586.2587890625 258.482421875 587.4794921875 259.947265625 C588.7001953125 261.412109375 590.287109375 262.6328125 592.240234375 263.609375 C594.193359375 264.5859375 596.5696614583334 265.07421875 599.369140625 265.07421875 L619.046875 265.07421875 C622.3020833333334 265.07421875 624.0110677083334 266.7669270833333 624.173828125 270.15234375 C624.173828125 271.8125 623.734375 273.08203125 622.85546875 273.9609375 C621.9765625 274.83984375 620.6744791666666 275.279296875 618.94921875 275.279296875 L584.671875 275.279296875 L584.671875 287.974609375 L619.046875 287.974609375 C620.2513020833334 287.974609375 621.5289713541666 287.8362630208333 622.8798828125 287.5595703125 C624.2307942708334 287.2828776041667 625.5654296875 286.8515625 626.8837890625 286.265625 C628.2021484375 285.6796875 629.4635416666666 284.9228515625 630.66796875 283.9951171875 C631.8723958333334 283.0673828125 632.9303385416666 281.9443359375 633.841796875 280.6259765625 C634.7532552083334 279.3076171875 635.4856770833334 277.7776692708333 636.0390625 276.0361328125 C636.5924479166666 274.2945963541667 636.869140625 272.3333333333333 636.869140625 270.15234375 C636.869140625 268.3619791666667 636.5517578125 266.4251302083333 635.9169921875 264.341796875 C635.2822265625 262.2584635416667 634.2649739583334 260.3297526041667 632.865234375 258.5556640625 C631.4654947916666 256.7815755208333 629.6263020833334 255.30859375 627.34765625 254.13671875 C625.0690104166666 252.96484375 622.3020833333334 252.37890625 619.046875 252.37890625 L599.369140625 252.37890625 C599.076171875 252.37890625 598.7750651041666 252.37076822916666 598.4658203125 252.3544921875 C598.1565755208334 252.33821614583334 597.8798828125 252.26497395833334 597.6357421875 252.134765625 C597.3916015625 252.00455729166666 597.1881510416666 251.79296875 597.025390625 251.5 C596.8626302083334 251.20703125 596.7649739583334 250.80013020833334 596.732421875 250.279296875 C596.732421875 250.01888020833334 596.7486979166666 249.75032552083334 596.78125 249.4736328125 C596.8138020833334 249.19694010416666 596.9195963541666 248.9365234375 597.0986328125 248.6923828125 C597.2776692708334 248.4482421875 597.5543619791666 248.2529296875 597.9287109375 248.1064453125 C598.3030598958334 247.9599609375 598.8157552083334 247.88671875 599.466796875 247.88671875 L630.5703125 247.88671875 L630.5703125 235.19140625 Z "></path></defs><g style="mix-blend-mode:normal"><use xmlns:xlink="http://www.w3.org/1999/xlink" xlink:href="#s-Path_60-d1224" fill="#6B5B95" fill-opacity="1.0"></use></g></g><g><defs><path id="s-Path_61-d1224" d="M662.162109375 235.19140625 C658.9720052083334 235.19140625 656.2620442708334 235.77734375 654.0322265625 236.94921875 C651.8024088541666 238.12109375 649.9957682291666 239.57779947916666 648.6123046875 241.3193359375 C647.2288411458334 243.06087239583334 646.2278645833334 244.94889322916666 645.609375 246.9833984375 C644.9908854166666 249.01790364583334 644.681640625 250.9140625 644.681640625 252.671875 L644.681640625 270.494140625 C644.681640625 273.6842447916667 645.267578125 276.3942057291667 646.439453125 278.6240234375 C647.611328125 280.8538411458333 649.0680338541666 282.6604817708333 650.8095703125 284.0439453125 C652.5511067708334 285.4274088541667 654.4391276041666 286.4283854166667 656.4736328125 287.046875 C658.5081380208334 287.6653645833333 660.404296875 287.974609375 662.162109375 287.974609375 L685.0625 287.974609375 L685.0625 275.865234375 L662.259765625 275.865234375 C660.697265625 275.865234375 659.3870442708334 275.3932291666667 658.3291015625 274.44921875 C657.2711588541666 273.5052083333333 656.7421875 272.1868489583333 656.7421875 270.494140625 L656.7421875 252.76953125 C656.7421875 251.20703125 657.2141927083334 249.89680989583334 658.158203125 248.8388671875 C659.1022135416666 247.78092447916666 660.4368489583334 247.251953125 662.162109375 247.251953125 L685.0625 247.251953125 C686.5598958333334 247.251953125 687.8375651041666 247.72395833333334 688.8955078125 248.66796875 C689.9534505208334 249.61197916666666 690.482421875 250.9140625 690.482421875 252.57421875 C690.482421875 254.13671875 690.0104166666666 255.44694010416666 689.06640625 256.5048828125 C688.1223958333334 257.5628255208333 686.7877604166666 258.091796875 685.0625 258.091796875 L662.162109375 258.091796875 L662.162109375 270.15234375 L685.0625 270.15234375 C688.2526041666666 270.15234375 690.9625651041666 269.56640625 693.1923828125 268.39453125 C695.4222005208334 267.22265625 697.2288411458334 265.7659505208333 698.6123046875 264.0244140625 C699.9957682291666 262.2828776041667 700.9967447916666 260.3948567708333 701.615234375 258.3603515625 C702.2337239583334 256.3258463541667 702.54296875 254.4296875 702.54296875 252.671875 C702.54296875 249.48177083333334 701.95703125 246.77180989583334 700.78515625 244.5419921875 C699.61328125 242.31217447916666 698.1565755208334 240.50553385416666 696.4150390625 239.1220703125 C694.6735026041666 237.73860677083334 692.7854817708334 236.73763020833334 690.7509765625 236.119140625 C688.7164713541666 235.50065104166666 686.8203125 235.19140625 685.0625 235.19140625 Z "></path></defs><g style="mix-blend-mode:normal"><use xmlns:xlink="http://www.w3.org/1999/xlink" xlink:href="#s-Path_61-d1224" fill="#6B5B95" fill-opacity="1.0"></use></g></g><g><defs><path id="s-Path_62-d1224" d="M711.283203125 212.876953125 L711.283203125 224.3515625 L723.978515625 224.3515625 L723.978515625 212.876953125 Z M711.283203125 235.19140625 L711.283203125 287.974609375 L723.978515625 287.974609375 L723.978515625 235.19140625 Z "></path></defs><g style="mix-blend-mode:normal"><use xmlns:xlink="http://www.w3.org/1999/xlink" xlink:href="#s-Path_62-d1224" fill="#6B5B95" fill-opacity="1.0"></use></g></g><g><defs><path id="s-Path_63-d1224" d="M735.84375 212.876953125 L735.84375 270.15234375 C735.84375 273.4401041666667 736.4296875 276.2151692708333 737.6015625 278.4775390625 C738.7734375 280.7399088541667 740.2545572916666 282.5791015625 742.044921875 283.9951171875 C743.8352864583334 285.4111328125 745.7639973958334 286.4283854166667 747.8310546875 287.046875 C749.8981119791666 287.6653645833333 751.8430989583334 287.974609375 753.666015625 287.974609375 L759.330078125 287.974609375 L759.330078125 275.279296875 L753.666015625 275.279296875 C752.201171875 275.279296875 750.98046875 274.8154296875 750.00390625 273.8876953125 C749.02734375 272.9599609375 748.5390625 271.71484375 748.5390625 270.15234375 L748.5390625 212.876953125 Z "></path></defs><g style="mix-blend-mode:normal"><use xmlns:xlink="http://www.w3.org/1999/xlink" xlink:href="#s-Path_63-d1224" fill="#6B5B95" fill-opacity="1.0"></use></g></g></svg>
