<svg xmlns="http://www.w3.org/2000/svg" viewBox="0 0 150 44">
  <g transform="translate(4,4) scale(0.0375) translate(0,960)" fill="#3a3f4b">
    <path d="M240.69-260.92v-332.15h47.89v332.15h-47.89Zm217.5 0v-332.15h47.89v332.15h-47.89ZM116.46-660.95v-40.95L480-892.88 843.54-701.9v40.95H116.46Zm0 515.79v-47.88h466.63q.42 12.62 1.8 23.49 1.38 10.88 5.79 24.39H116.46Zm554.96-253.89v-194.02h47.89v169.82l-47.89 24.2ZM800-13.51q-64.79-15.5-106.94-73.68-42.15-58.17-42.15-129.54v-95.49L800-387.01l149.61 74.65v95.63q0 71.47-42.41 129.6Q864.79-29 800-13.51Zm-25.21-114.95 131.2-130.96-22.72-22.98-108.48 108.02-52.51-52.52-22.72 22.43 75.23 76.01Z"/>
  </g>
  <text x="46" y="14" font-family="Arial,Helvetica,sans-serif" font-size="16" font-weight="700" fill="#3a3f4b" dominant-baseline="middle">Banque</text>
  <text x="46" y="31" font-family="Arial,Helvetica,sans-serif" font-size="16" font-weight="700" fill="#3a3f4b" dominant-baseline="middle">Mutualiste</text>
</svg>
