<svg xmlns="http://www.w3.org/2000/svg" viewBox="0 0 150 44">
  <g transform="translate(4,4) scale(0.0375) translate(0,960)" fill="#3a3f4b">
    <path d="M480-105.92q-128.28-35.5-212.01-152.65-83.72-117.14-83.72-260.81v-223.86L480-854.13l295.73 110.89v223.86q0 143.67-83.72 260.81Q608.28-141.42 480-105.92Zm-84.1-222.9h168.2q13.02 0 21.69-8.67 8.67-8.67 8.67-21.69v-128.2q0-12.5-8.67-21.17-8.67-8.67-21.69-8.67h-9.28v-40.47q0-30.99-21.74-52.48-21.73-21.48-52.7-21.48-30.96 0-52.69 21.48-21.74 21.49-21.74 52.48v40.47H395.9q-13.02 0-21.43 8.67t-8.41 21.17v128.2q0 13.02 8.41 21.69 8.41 8.67 21.43 8.67Zm40.09-188.4v-40.47q0-18.32 13.04-30.62 13.03-12.29 31.35-12.29 18.33 0 31.36 12.29 13.04 12.3 13.04 30.62v40.47h-88.79Z"/>
  </g>
  <text x="46" y="14" font-family="Arial,Helvetica,sans-serif" font-size="16" font-weight="700" fill="#3a3f4b" dominant-baseline="middle">Industrie</text>
  <text x="46" y="31" font-family="Arial,Helvetica,sans-serif" font-size="16" font-weight="700" fill="#3a3f4b" dominant-baseline="middle">Défense</text>
</svg>
